<?xml version="1.0" encoding="UTF-8"?>
<svg id="katman_1" xmlns="http://www.w3.org/2000/svg" version="1.1" viewBox="0 0 99.21 99.21">
  <!-- Generator: Adobe Illustrator 30.1.0, SVG Export Plug-In . SVG Version: 2.1.1 Build 109)  -->
  <defs>
    <style>
      .st0 {
        fill: none;
        stroke: #1d1d1b;
        stroke-miterlimit: 10;
      }

      .st1 {
        fill: #dc2729;
      }
    </style>
  </defs>
  <line class="st0" x1="-528.03" y1="-178.34" x2="-528.03" y2="-178.34"/>
  <path class="st1" d="M59.97,72.04c-5.73-.17,5.23-12.96-12.76-22.55,2.55,6.89-.43,13.45-4.62,18.88-.83-1.9-1.81-3.07-2.95-3.97-1.02,9.83-8.39,12.83-4.72,22.93,1.36,3.75,4.93,6.57,9.06,9.04-7.65-1.97-14.81-5.77-19.72-11.77-8.02-9.82-7.94-23.19-1.7-33.87,3.35-5.72,5.56-11.42,6.33-18.23,3.1,1.66,4.63,4.41,5.96,7.64l6.7-11.51c4.67-8.02,5.19-17.46,2.06-26.2,15.78,7.62,24.36,22.3,20.22,39.27-.67,2.73,1.02,5.3,3.39,5.76s4.8-.98,5.5-3.65c.55-2.11.45-4.24.71-6.94,6.62,8.43,10.33,19.13,10.63,29.87.46,16.33-11.94,26.42-26.15,30.02,5.41-2.88,9.98-6.71,10.47-12.94s-1.66-12.14-5.23-17.17l-.68,3.52c-.25,1.31-1.35,1.9-2.52,1.86Z"/>
</svg>